<svg width="55" height="55" viewBox="0 0 55 55" fill="none" xmlns="http://www.w3.org/2000/svg">
    <g clip-path="url(#clip0_84_2404)">
        <path d="M37.8125 38.9583C36.2221 38.9602 34.6681 39.4348 33.3481 40.3219C32.028 41.209 31.0015 42.4685 30.399 43.9404C28.5029 43.4087 26.4971 43.4087 24.601 43.9404C23.8694 42.1667 22.5253 40.7147 20.8133 39.8487C19.1012 38.9826 17.1351 38.7601 15.2728 39.2216C13.4105 39.6832 11.7759 40.798 10.6664 42.3633C9.55689 43.9286 9.04635 45.8403 9.22767 47.7503C9.409 49.6604 10.2701 51.4418 11.6544 52.7704C13.0386 54.099 14.8538 54.8863 16.7697 54.9892C18.6856 55.092 20.5747 54.5035 22.0932 53.3308C23.6117 52.158 24.6586 50.479 25.0433 48.5994C25.8326 48.3144 26.6614 48.1544 27.5 48.125C28.3386 48.1542 29.1675 48.3142 29.9567 48.5994C30.2631 50.0851 30.9845 51.4534 32.0373 52.5456C33.09 53.6377 34.4309 54.409 35.9043 54.7698C37.3777 55.1306 38.9233 55.0662 40.3616 54.5841C41.7998 54.1019 43.0719 53.2218 44.0301 52.0458C44.9884 50.8698 45.5935 49.4462 45.7752 47.9402C45.957 46.4341 45.7079 44.9075 45.057 43.5373C44.406 42.1671 43.3798 41.0096 42.0976 40.1991C40.8153 39.3886 39.3294 38.9584 37.8125 38.9583ZM17.1875 50.4167C16.5076 50.4167 15.843 50.2151 15.2777 49.8373C14.7124 49.4596 14.2718 48.9228 14.0117 48.2946C13.7515 47.6665 13.6834 46.9754 13.8161 46.3085C13.9487 45.6417 14.2761 45.0292 14.7568 44.5485C15.2376 44.0677 15.8501 43.7404 16.5169 43.6077C17.1837 43.4751 17.8749 43.5432 18.503 43.8033C19.1311 44.0635 19.668 44.5041 20.0457 45.0694C20.4234 45.6347 20.625 46.2993 20.625 46.9792C20.625 47.8909 20.2628 48.7652 19.6182 49.4098C18.9735 50.0545 18.0992 50.4167 17.1875 50.4167ZM37.8125 50.4167C37.1326 50.4167 36.468 50.2151 35.9027 49.8373C35.3374 49.4596 34.8968 48.9228 34.6367 48.2946C34.3765 47.6665 34.3084 46.9754 34.4411 46.3085C34.5737 45.6417 34.9011 45.0292 35.3818 44.5485C35.8626 44.0677 36.4751 43.7404 37.1419 43.6077C37.8087 43.4751 38.4999 43.5432 39.128 43.8033C39.7561 44.0635 40.293 44.5041 40.6707 45.0694C41.0484 45.6347 41.25 46.2993 41.25 46.9792C41.25 47.8909 40.8878 48.7652 40.2432 49.4098C39.5985 50.0545 38.7242 50.4167 37.8125 50.4167ZM45.776 19.8802C45.1665 1.4025 35.0625 0.0595833 34.6156 0.01375C34.5357 0.00460196 34.4554 1.11879e-05 34.375 0C32.3875 0.0789453 30.465 0.729855 28.8383 1.87458C28.4463 2.14878 27.9795 2.29584 27.5011 2.29584C27.0228 2.29584 26.556 2.14878 26.164 1.87458C24.5363 0.730024 22.6132 0.0791542 20.625 0C20.5484 0.000435883 20.4719 0.00502596 20.3958 0.01375C19.9513 0.0595833 9.85417 1.4025 9.23542 19.8802C6.17146 20.9046 0 23.4735 0 27.5C0 35.9563 14.1946 36.6667 27.5 36.6667C40.8054 36.6667 55 35.9563 55 27.5C55 23.4735 48.8285 20.9046 45.776 19.8802ZM20.751 4.59479C21.751 4.70253 22.7082 5.05861 23.5354 5.63063C24.6988 6.44167 26.0829 6.8765 27.5011 6.8765C28.9194 6.8765 30.3035 6.44167 31.4669 5.63063C32.2885 5.06248 33.238 4.70661 34.2306 4.59479C35.2504 4.83771 40.8971 6.80396 41.234 20.311C36.922 22.2394 32.2186 23.1317 27.5 22.9167C22.7817 23.1316 18.0784 22.2401 13.766 20.3133C14.1052 6.69167 19.8413 4.8125 20.751 4.59479ZM27.5 32.0833C8.55937 32.0833 4.58333 29.59 4.55583 27.6879C6.36805 25.9068 8.6356 24.6588 11.11 24.0808C16.1938 26.5953 21.8348 27.7721 27.5 27.5C33.1652 27.7721 38.8062 26.5953 43.89 24.0808C46.3067 24.6849 48.5442 25.8571 50.4167 27.5C50.4167 29.59 46.4406 32.0833 27.5 32.0833Z" fill="#545454"/>
    </g>
    <defs>
        <clipPath id="clip0_84_2404">
            <rect width="55" height="55" fill="white"/>
        </clipPath>
    </defs>
</svg>