<svg width="55" height="55" viewBox="0 0 55 55" fill="none" xmlns="http://www.w3.org/2000/svg">
    <g clip-path="url(#clip0_84_2452)">
        <path d="M27.5 0C22.061 0 16.7442 1.61285 12.2218 4.63459C7.69948 7.65632 4.17474 11.9512 2.09333 16.9762C0.0119154 22.0012 -0.532676 27.5305 0.528417 32.865C1.58951 38.1995 4.20863 43.0995 8.05457 46.9454C11.9005 50.7914 16.8006 53.4105 22.135 54.4716C27.4695 55.5327 32.9988 54.9881 38.0238 52.9067C43.0488 50.8253 47.3437 47.3005 50.3654 42.7782C53.3872 38.2558 55 32.939 55 27.5C54.9921 20.209 52.0923 13.2188 46.9367 8.06327C41.7812 2.90773 34.791 0.00788581 27.5 0V0ZM27.5 4.58333C32.7857 4.57912 37.9086 6.41151 41.9925 9.76708L9.76709 41.9925C7.01839 38.6371 5.27923 34.5701 4.75205 30.2647C4.22487 25.9594 4.93135 21.5929 6.78927 17.6734C8.64719 13.754 11.5801 10.4428 15.2466 8.12543C18.9132 5.80802 23.1625 4.57966 27.5 4.58333ZM27.5 50.4167C22.2143 50.4209 17.0914 48.5885 13.0075 45.2329L45.2329 13.0075C47.9816 16.3629 49.7208 20.4299 50.248 24.7353C50.7752 29.0406 50.0687 33.4071 48.2108 37.3266C46.3528 41.246 43.4199 44.5572 39.7534 46.8746C36.0868 49.192 31.8375 50.4203 27.5 50.4167Z" fill="#545454"/>
    </g>
    <g clip-path="url(#clip1_84_2452)">
        <path d="M35.2 14.3H19.8C18.3419 14.3018 16.944 14.8818 15.9129 15.9129C14.8818 16.944 14.3018 18.3419 14.3 19.8L14.3 35.2C14.3018 36.6582 14.8818 38.0561 15.9129 39.0872C16.944 40.1183 18.3419 40.6983 19.8 40.7001H35.2C36.6582 40.6983 38.0561 40.1183 39.0872 39.0872C40.1183 38.0561 40.6983 36.6582 40.7001 35.2V19.8C40.6983 18.3419 40.1183 16.944 39.0872 15.9129C38.0561 14.8818 36.6582 14.3018 35.2 14.3V14.3ZM22 38.5V37.4C22 35.9414 22.5795 34.5424 23.611 33.511C24.6424 32.4795 26.0414 31.9 27.5 31.9C28.9587 31.9 30.3577 32.4795 31.3891 33.511C32.4206 34.5424 33 35.9414 33 37.4V38.5H22ZM38.5 35.2C38.5 36.0753 38.1524 36.9146 37.5335 37.5335C36.9146 38.1524 36.0753 38.5 35.2 38.5V37.4C35.2 35.3579 34.3888 33.3994 32.9448 31.9553C31.5007 30.5113 29.5422 29.7 27.5 29.7C25.4579 29.7 23.4994 30.5113 22.0553 31.9553C20.6113 33.3994 19.8 35.3579 19.8 37.4V38.5C18.9248 38.5 18.0855 38.1524 17.4666 37.5335C16.8477 36.9146 16.5 36.0753 16.5 35.2V19.8C16.5 18.9248 16.8477 18.0855 17.4666 17.4666C18.0855 16.8477 18.9248 16.5 19.8 16.5H35.2C36.0753 16.5 36.9146 16.8477 37.5335 17.4666C38.1524 18.0855 38.5 18.9248 38.5 19.8V35.2Z" fill="#545454"/>
        <path d="M27.5001 18.7004C26.6299 18.7004 25.7792 18.9585 25.0556 19.442C24.332 19.9255 23.7681 20.6126 23.435 21.4166C23.102 22.2206 23.0149 23.1053 23.1846 23.9588C23.3544 24.8124 23.7735 25.5964 24.3888 26.2117C25.0042 26.8271 25.7882 27.2461 26.6417 27.4159C27.4952 27.5857 28.3799 27.4985 29.1839 27.1655C29.9879 26.8325 30.6751 26.2685 31.1586 25.5449C31.642 24.8214 31.9001 23.9707 31.9001 23.1004C31.9001 21.9335 31.4365 20.8143 30.6114 19.9892C29.7862 19.164 28.6671 18.7004 27.5001 18.7004ZM27.5001 25.3004C27.065 25.3004 26.6396 25.1714 26.2778 24.9297C25.9161 24.6879 25.6341 24.3443 25.4676 23.9423C25.3011 23.5403 25.2575 23.098 25.3424 22.6712C25.4273 22.2445 25.6368 21.8525 25.9445 21.5448C26.2521 21.2371 26.6441 21.0276 27.0709 20.9427C27.4977 20.8578 27.94 20.9014 28.342 21.0679C28.744 21.2344 29.0876 21.5164 29.3293 21.8782C29.5711 22.24 29.7001 22.6653 29.7001 23.1004C29.7001 23.6839 29.4683 24.2435 29.0557 24.6561C28.6432 25.0687 28.0836 25.3004 27.5001 25.3004Z" fill="#545454"/>
    </g>
    <defs>
        <clipPath id="clip0_84_2452">
            <rect width="55" height="55" fill="white"/>
        </clipPath>
        <clipPath id="clip1_84_2452">
            <rect width="26.4" height="26.4" fill="white" transform="translate(14.3 14.3)"/>
        </clipPath>
    </defs>
</svg>