<svg width="55" height="55" viewBox="0 0 55 55" fill="none" xmlns="http://www.w3.org/2000/svg">
    <path d="M15.4688 6.875C11.6875 6.875 8.59375 9.96875 8.59375 13.75C8.59375 15.663 9.41359 17.3886 10.6889 18.6381C9.51899 19.4276 8.55988 20.4912 7.89513 21.7362C7.23039 22.9812 6.88017 24.3699 6.875 25.7812V35.4492L10.3125 37.168V48.125H20.625V37.168L24.0625 35.4492V32.6562H20.625V33.3008L17.1875 35.0195V44.6875H13.75V35.0195L10.3125 33.3008V25.7812C10.3125 22.9144 12.6019 20.625 15.4688 20.625C18.3356 20.625 20.625 22.9144 20.625 25.7812H24.0625C24.0573 24.3699 23.7071 22.9812 23.0424 21.7362C22.3776 20.4912 21.4185 19.4276 20.2486 18.6381C21.5239 17.3886 22.3438 15.6647 22.3438 13.75C22.3438 9.96875 19.25 6.875 15.4688 6.875ZM39.5312 6.875C35.75 6.875 32.6562 9.96875 32.6562 13.75C32.6562 15.663 33.4761 17.3886 34.7514 18.6381C33.5815 19.4276 32.6224 20.4912 31.9576 21.7362C31.2929 22.9812 30.9427 24.3699 30.9375 25.7812V35.4492L34.375 37.168V48.125H44.6875V37.168L48.125 35.4492V25.7812C48.1198 24.3699 47.7696 22.9812 47.1049 21.7362C46.4401 20.4912 45.481 19.4276 44.3111 18.6381C45.5864 17.3886 46.4062 15.6647 46.4062 13.75C46.4062 9.96875 43.3125 6.875 39.5312 6.875ZM15.4688 10.3125C17.3886 10.3125 18.9062 11.8302 18.9062 13.75C18.9062 15.6698 17.3886 17.1875 15.4688 17.1875C13.5489 17.1875 12.0312 15.6698 12.0312 13.75C12.0312 11.8302 13.5489 10.3125 15.4688 10.3125ZM39.5312 10.3125C41.4511 10.3125 42.9688 11.8302 42.9688 13.75C42.9688 15.6698 41.4511 17.1875 39.5312 17.1875C37.6114 17.1875 36.0938 15.6698 36.0938 13.75C36.0938 11.8302 37.6114 10.3125 39.5312 10.3125ZM39.5312 20.625C42.3981 20.625 44.6875 22.9144 44.6875 25.7812V33.3008L41.25 35.0195V44.6875H37.8125V35.0195L34.375 33.3008V25.7812C34.375 22.9144 36.6644 20.625 39.5312 20.625ZM25.7812 24.3856V27.5H18.9062V30.9375H25.7812V34.0536L30.6161 29.2188L25.7812 24.3856Z" fill="#545454"/>
</svg>