<svg width="55" height="55" viewBox="0 0 55 55" fill="none" xmlns="http://www.w3.org/2000/svg">
    <g clip-path="url(#clip0_84_2418)">
        <path d="M41.2501 0H18.3334C16.1065 0.00292961 13.9286 0.654742 12.0662 1.87573C10.2038 3.09671 8.73753 4.83395 7.84675 6.875H4.58341C3.97563 6.875 3.39273 7.11644 2.96296 7.54621C2.53319 7.97598 2.29175 8.55888 2.29175 9.16667C2.29175 9.77446 2.53319 10.3573 2.96296 10.7871C3.39273 11.2169 3.97563 11.4583 4.58341 11.4583H6.87508V16.0417H4.58341C3.97563 16.0417 3.39273 16.2831 2.96296 16.7129C2.53319 17.1427 2.29175 17.7255 2.29175 18.3333C2.29175 18.9411 2.53319 19.524 2.96296 19.9538C3.39273 20.3836 3.97563 20.625 4.58341 20.625H6.87508V25.2083H4.58341C3.97563 25.2083 3.39273 25.4498 2.96296 25.8795C2.53319 26.3093 2.29175 26.8922 2.29175 27.5C2.29175 28.1078 2.53319 28.6907 2.96296 29.1205C3.39273 29.5502 3.97563 29.7917 4.58341 29.7917H6.87508V34.375H4.58341C3.97563 34.375 3.39273 34.6164 2.96296 35.0462C2.53319 35.476 2.29175 36.0589 2.29175 36.6667C2.29175 37.2745 2.53319 37.8574 2.96296 38.2871C3.39273 38.7169 3.97563 38.9583 4.58341 38.9583H6.87508V43.5417H4.58341C3.97563 43.5417 3.39273 43.7831 2.96296 44.2129C2.53319 44.6427 2.29175 45.2255 2.29175 45.8333C2.29175 46.4411 2.53319 47.024 2.96296 47.4538C3.39273 47.8836 3.97563 48.125 4.58341 48.125H7.84675C8.73753 50.166 10.2038 51.9033 12.0662 53.1243C13.9286 54.3453 16.1065 54.9971 18.3334 55H41.2501C44.2879 54.9964 47.2003 53.788 49.3483 51.6399C51.4964 49.4919 52.7048 46.5795 52.7084 43.5417V11.4583C52.7048 8.42051 51.4964 5.50815 49.3483 3.36009C47.2003 1.21202 44.2879 0.00363884 41.2501 0V0ZM48.1251 43.5417C48.1251 45.365 47.4008 47.1137 46.1114 48.403C44.8221 49.6923 43.0734 50.4167 41.2501 50.4167H18.3334C16.5101 50.4167 14.7614 49.6923 13.4721 48.403C12.1827 47.1137 11.4584 45.365 11.4584 43.5417V11.4583C11.4584 9.63497 12.1827 7.88629 13.4721 6.59697C14.7614 5.30766 16.5101 4.58333 18.3334 4.58333H41.2501C43.0734 4.58333 44.8221 5.30766 46.1114 6.59697C47.4008 7.88629 48.1251 9.63497 48.1251 11.4583V43.5417ZM29.7917 27.5C31.6151 27.5 33.3638 26.7757 34.6531 25.4864C35.9424 24.197 36.6667 22.4484 36.6667 20.625C36.6667 18.8016 35.9424 17.053 34.6531 15.7636C33.3638 14.4743 31.6151 13.75 29.7917 13.75C27.9684 13.75 26.2197 14.4743 24.9304 15.7636C23.6411 17.053 22.9167 18.8016 22.9167 20.625C22.9167 22.4484 23.6411 24.197 24.9304 25.4864C26.2197 26.7757 27.9684 27.5 29.7917 27.5ZM41.2501 41.25C41.2501 41.8578 41.0086 42.4407 40.5789 42.8705C40.1491 43.3002 39.5662 43.5417 38.9584 43.5417C38.3506 43.5417 37.7677 43.3002 37.338 42.8705C36.9082 42.4407 36.6667 41.8578 36.6667 41.25C36.6667 39.4266 35.9424 37.678 34.6531 36.3886C33.3638 35.0993 31.6151 34.375 29.7917 34.375C27.9684 34.375 26.2197 35.0993 24.9304 36.3886C23.6411 37.678 22.9167 39.4266 22.9167 41.25C22.9167 41.8578 22.6753 42.4407 22.2455 42.8705C21.8158 43.3002 21.2329 43.5417 20.6251 43.5417C20.0173 43.5417 19.4344 43.3002 19.0046 42.8705C18.5749 42.4407 18.3334 41.8578 18.3334 41.25C18.817 26.1067 40.7711 26.1113 41.2501 41.25Z" fill="#545454"/>
    </g>
    <defs>
        <clipPath id="clip0_84_2418">
            <rect width="55" height="55" fill="white"/>
        </clipPath>
    </defs>
</svg>