<svg width="55" height="55" viewBox="0 0 55 55" fill="none" xmlns="http://www.w3.org/2000/svg">
    <path d="M50.9609 32.6283C50.8174 32.2278 50.6488 31.8367 50.4561 31.4574L41.5207 11.1289C41.4362 10.9331 41.3151 10.7552 41.1641 10.6047C40.5256 9.96611 39.7677 9.45956 38.9335 9.11396C38.0992 8.76836 37.2051 8.59048 36.3021 8.59048C35.3992 8.59048 34.5051 8.76836 33.6708 9.11396C32.8366 9.45956 32.0787 9.96611 31.4402 10.6047C31.119 10.9262 30.9383 11.3619 30.9375 11.8164V17.1875H24.0625V11.8164C24.0627 11.5906 24.0184 11.367 23.9321 11.1584C23.8458 10.9497 23.7193 10.7601 23.5598 10.6004C22.9213 9.96181 22.1634 9.45526 21.3292 9.10966C20.4949 8.76406 19.6008 8.58618 18.6979 8.58618C17.7949 8.58618 16.9008 8.76406 16.0665 9.10966C15.2323 9.45526 14.4744 9.96181 13.8359 10.6004C13.6849 10.7509 13.5638 10.9288 13.4793 11.1246L4.54395 31.4531C4.3512 31.8324 4.18258 32.2235 4.03906 32.624C3.53311 34.0397 3.3428 35.5489 3.48146 37.0458C3.62013 38.5428 4.08442 39.9914 4.84181 41.29C5.59921 42.5887 6.63138 43.706 7.86603 44.5638C9.10069 45.4216 10.508 45.999 11.9893 46.2557C13.4706 46.5124 14.9901 46.4421 16.4414 46.0498C17.8926 45.6574 19.2406 44.9525 20.3908 43.9844C21.5409 43.0163 22.4655 41.8084 23.0998 40.4454C23.7341 39.0823 24.0626 37.5971 24.0625 36.0937V20.625H30.9375V36.0937C30.9367 37.5973 31.2648 39.0828 31.8986 40.4463C32.5324 41.8097 33.4568 43.018 34.6068 43.9866C35.7568 44.9552 37.1047 45.6606 38.5561 46.0534C40.0074 46.4461 41.5271 46.5168 43.0086 46.2604C44.4902 46.004 45.8977 45.4267 47.1326 44.569C48.3676 43.7113 49.4 42.594 50.1576 41.2952C50.9153 39.9965 51.3797 38.5478 51.5185 37.0507C51.6572 35.5535 51.467 34.0442 50.9609 32.6283ZM16.4807 12.8369C17.0537 12.3544 17.7687 12.0723 18.5168 12.0335C19.2649 11.9947 20.0052 12.2014 20.625 12.6221V28.4152C19.2831 27.2103 17.6481 26.3791 15.8838 26.0051C14.1195 25.631 12.2879 25.7272 10.5725 26.284L16.4807 12.8369ZM13.75 42.9687C12.3903 42.9687 11.061 42.5655 9.93046 41.8101C8.79987 41.0547 7.91868 39.9809 7.39833 38.7247C6.87798 37.4684 6.74183 36.0861 7.0071 34.7525C7.27238 33.4189 7.92716 32.1939 8.88864 31.2324C9.85013 30.2709 11.0751 29.6161 12.4088 29.3508C13.7424 29.0856 15.1247 29.2217 16.3809 29.7421C17.6372 30.2624 18.7109 31.1436 19.4664 32.2742C20.2218 33.4048 20.625 34.734 20.625 36.0937C20.625 37.9171 19.9007 39.6658 18.6114 40.9551C17.322 42.2444 15.5734 42.9687 13.75 42.9687ZM34.375 12.6199C34.9949 12.1993 35.7351 11.9926 36.4832 12.0314C37.2313 12.0702 37.9463 12.3523 38.5193 12.8348L44.4275 26.2797C42.7119 25.7232 40.8802 25.6274 39.1159 26.0018C37.3516 26.3762 35.7167 27.2078 34.375 28.4131V12.6199ZM41.25 42.9687C39.8903 42.9687 38.561 42.5655 37.4305 41.8101C36.2999 41.0547 35.4187 39.9809 34.8983 38.7247C34.378 37.4684 34.2418 36.0861 34.5071 34.7525C34.7724 33.4189 35.4272 32.1939 36.3886 31.2324C37.3501 30.2709 38.5751 29.6161 39.9088 29.3508C41.2424 29.0856 42.6247 29.2217 43.8809 29.7421C45.1372 30.2624 46.2109 31.1436 46.9664 32.2742C47.7218 33.4048 48.125 34.734 48.125 36.0937C48.125 37.9171 47.4007 39.6658 46.1114 40.9551C44.822 42.2444 43.0734 42.9687 41.25 42.9687Z" fill="#545454"/>
</svg>