<svg width="55" height="55" viewBox="0 0 55 55" fill="none" xmlns="http://www.w3.org/2000/svg">
    <g clip-path="url(#clip0_84_2561)">
        <path d="M27.5 0C22.061 0 16.7442 1.61285 12.2218 4.63459C7.69948 7.65632 4.17474 11.9512 2.09333 16.9762C0.0119154 22.0012 -0.532676 27.5305 0.528417 32.865C1.58951 38.1995 4.20863 43.0995 8.05457 46.9454C11.9005 50.7914 16.8006 53.4105 22.135 54.4716C27.4695 55.5327 32.9988 54.9881 38.0238 52.9067C43.0488 50.8253 47.3437 47.3005 50.3654 42.7782C53.3872 38.2558 55 32.939 55 27.5C54.9921 20.209 52.0923 13.2188 46.9367 8.06327C41.7812 2.90773 34.791 0.00788581 27.5 0V0ZM27.5 4.58333C32.7857 4.57912 37.9086 6.41151 41.9925 9.76708L9.76709 41.9925C7.01839 38.6371 5.27923 34.5701 4.75205 30.2647C4.22487 25.9594 4.93135 21.5929 6.78927 17.6734C8.64719 13.754 11.5801 10.4428 15.2466 8.12543C18.9132 5.80802 23.1625 4.57966 27.5 4.58333ZM27.5 50.4167C22.2143 50.4209 17.0914 48.5885 13.0075 45.2329L45.2329 13.0075C47.9816 16.3629 49.7208 20.4299 50.248 24.7353C50.7752 29.0406 50.0687 33.4071 48.2108 37.3266C46.3528 41.246 43.4199 44.5572 39.7534 46.8746C36.0868 49.192 31.8375 50.4203 27.5 50.4167Z" fill="#545454"/>
    </g>
    <g clip-path="url(#clip1_84_2561)">
        <path d="M42.4875 23.3139C41.5588 22.8433 40.4433 22.9414 39.611 23.5669L37.0906 25.4383C36.7333 21.9274 33.779 19.2552 30.25 19.2508H30.1332L24.4654 13.5844C23.6941 12.8077 22.6437 12.3723 21.549 12.3758H12.375C11.6156 12.3758 11 12.9914 11 13.7508C11 14.5102 11.6156 15.1258 12.375 15.1258H21.549C21.9135 15.1267 22.2628 15.2715 22.5211 15.5287L26.2432 19.2508H17.875C14.08 19.2554 11.0046 22.3307 11 26.1258V37.1258C11.0046 40.9208 14.08 43.9963 17.875 44.0008H30.25C33.7791 43.9963 36.7333 41.3242 37.0906 37.8133L39.6069 39.6888C40.8219 40.6 42.5456 40.3538 43.4569 39.1388C43.8139 38.6628 44.0068 38.0838 44.0068 37.4888V25.7724C44.0104 24.7303 43.4212 23.7768 42.4875 23.3139ZM34.375 37.1258C34.375 39.4039 32.5282 41.2508 30.25 41.2508H17.875C15.5969 41.2508 13.75 39.4039 13.75 37.1258V26.1258C13.75 23.8476 15.5969 22.0008 17.875 22.0008H30.25C32.5282 22.0008 34.375 23.8476 34.375 26.1258V37.1258ZM41.25 37.4791L37.125 34.4047V28.8469L41.25 25.7725V37.4791Z" fill="#545454"/>
    </g>
    <defs>
        <clipPath id="clip0_84_2561">
            <rect width="55" height="55" fill="white"/>
        </clipPath>
        <clipPath id="clip1_84_2561">
            <rect width="33" height="33" fill="white" transform="translate(11 11)"/>
        </clipPath>
    </defs>
</svg>