<svg width="55" height="55" viewBox="0 0 55 55" fill="none" xmlns="http://www.w3.org/2000/svg">
    <g clip-path="url(#clip0_90_2579)">
        <path d="M31.2742 23.7269C30.0511 23.7279 28.8466 24.0265 27.7647 24.5969C26.6828 25.1673 25.7559 25.9924 25.064 27.001L14.5348 22.2468C15.2826 20.4409 15.2855 18.4124 14.5429 16.6044L25.0576 11.8259C26.0829 13.3089 27.6059 14.3752 29.3501 14.8316C31.0944 15.2879 32.9444 15.1039 34.5647 14.313C36.1849 13.5221 37.468 12.1768 38.1813 10.5209C38.8945 8.865 38.9907 7.00833 38.4523 5.28764C37.9139 3.56695 36.7766 2.09622 35.2467 1.14223C33.7168 0.188235 31.8957 -0.185832 30.1136 0.0878793C28.3315 0.361591 26.7066 1.26495 25.5335 2.6341C24.3605 4.00325 23.717 5.74749 23.7198 7.55045C23.7266 7.97718 23.7699 8.40255 23.8492 8.82192L12.6712 13.9013C11.5977 12.8955 10.2537 12.2252 8.80438 11.9727C7.35507 11.7202 5.86358 11.8966 4.51314 12.4802C3.1627 13.0637 2.01212 14.029 1.20277 15.2575C0.393411 16.486 -0.0394741 17.9241 -0.0427064 19.3953C-0.0459387 20.8664 0.380622 22.3064 1.18457 23.5384C1.98852 24.7705 3.13484 25.7408 4.48271 26.3303C5.83057 26.9198 7.32128 27.1027 8.77168 26.8566C10.2221 26.6105 11.569 25.9461 12.647 24.945L23.854 30.005C23.7762 30.424 23.7334 30.8488 23.7262 31.2749C23.7259 32.7682 24.1685 34.228 24.9979 35.4698C25.8273 36.7115 27.0064 37.6794 28.386 38.251C29.7655 38.8227 31.2836 38.9723 32.7483 38.6811C34.2129 38.3898 35.5582 37.6707 36.6141 36.6148C37.6701 35.5589 38.3891 34.2136 38.6804 32.7489C38.9716 31.2843 38.822 29.7662 38.2504 28.3866C37.6788 27.0071 36.7109 25.828 35.4691 24.9986C34.2273 24.1691 32.7675 23.7266 31.2742 23.7269ZM31.2742 3.23618C32.1275 3.23586 32.9618 3.48862 33.6715 3.96248C34.3812 4.43634 34.9344 5.11003 35.2612 5.89833C35.588 6.68663 35.6737 7.55413 35.5074 8.39113C35.3411 9.22812 34.9303 9.997 34.327 10.6005C33.7237 11.204 32.955 11.6151 32.1181 11.7817C31.2811 11.9483 30.4136 11.863 29.6252 11.5365C28.8368 11.21 28.1629 10.657 27.6887 9.94749C27.2146 9.23798 26.9615 8.4038 26.9615 7.55045C26.9624 6.40678 27.417 5.31017 28.2255 4.50132C29.0341 3.69247 30.1305 3.23747 31.2742 3.23618ZM7.54977 23.7269C6.69642 23.7272 5.86215 23.4745 5.15246 23.0006C4.44277 22.5268 3.88954 21.8531 3.56276 21.0648C3.23597 20.2765 3.15031 19.409 3.31659 18.572C3.48288 17.735 3.89364 16.9661 4.49694 16.3626C5.10023 15.7591 5.86896 15.348 6.70589 15.1814C7.54282 15.0148 8.41036 15.1001 9.19878 15.4266C9.9872 15.7531 10.6611 16.3061 11.1352 17.0156C11.6094 17.7251 11.8624 18.5593 11.8624 19.4127C11.8611 20.5562 11.4064 21.6526 10.598 22.4613C9.7895 23.2701 8.69331 23.7252 7.54977 23.7269ZM31.2742 35.5891C30.4209 35.5891 29.5868 35.3361 28.8773 34.862C28.1678 34.388 27.6149 33.7142 27.2883 32.9259C26.9618 32.1375 26.8764 31.2701 27.0428 30.4332C27.2093 29.5963 27.6202 28.8276 28.2235 28.2242C28.8269 27.6209 29.5956 27.21 30.4325 27.0435C31.2694 26.877 32.1369 26.9625 32.9252 27.289C33.7135 27.6155 34.3873 28.1685 34.8614 28.878C35.3354 29.5875 35.5885 30.4216 35.5885 31.2749C35.5876 32.4188 35.1328 33.5157 34.3239 34.3246C33.515 35.1335 32.4181 35.5883 31.2742 35.5891Z" fill="#545454"/>
    </g>
    <g clip-path="url(#clip1_90_2579)">
        <path d="M54.5256 52.24L44.8699 42.5842C47.5012 39.3661 48.7949 35.2597 48.4834 31.1144C48.172 26.9691 46.2792 23.1021 43.1966 20.3133C40.1139 17.5245 36.0773 16.0271 31.9216 16.131C27.766 16.2349 23.8092 17.9321 20.8698 20.8715C17.9304 23.811 16.2332 27.7677 16.1293 31.9234C16.0254 36.079 17.5228 40.1156 20.3116 43.1983C23.1004 46.2809 26.9674 48.1737 31.1127 48.4851C35.258 48.7966 39.3644 47.5029 42.5825 44.8716L52.2383 54.5273C52.5434 54.822 52.952 54.985 53.3761 54.9813C53.8003 54.9777 54.206 54.8075 54.5059 54.5076C54.8058 54.2077 54.976 53.802 54.9796 53.3778C54.9833 52.9537 54.8203 52.5451 54.5256 52.24ZM32.3525 45.2954C29.793 45.2954 27.291 44.5364 25.1628 43.1144C23.0346 41.6924 21.3759 39.6713 20.3964 37.3066C19.4169 34.9419 19.1607 32.3399 19.66 29.8295C20.1593 27.3192 21.3919 25.0133 23.2017 23.2034C25.0116 21.3936 27.3175 20.161 29.8278 19.6617C32.3382 19.1624 34.9402 19.4186 37.3049 20.3981C39.6696 21.3776 41.6907 23.0363 43.1127 25.1645C44.5347 27.2927 45.2937 29.7947 45.2937 32.3542C45.2898 35.7853 43.9252 39.0747 41.4991 41.5008C39.073 43.9269 35.7836 45.2915 32.3525 45.2954Z" fill="#545454"/>
    </g>
    <defs>
        <clipPath id="clip0_90_2579">
            <rect width="38.8235" height="38.8235" fill="white"/>
        </clipPath>
        <clipPath id="clip1_90_2579">
            <rect width="38.8235" height="38.8235" fill="white" transform="translate(16.1765 16.1765)"/>
        </clipPath>
    </defs>
</svg>