<svg width="55" height="55" viewBox="0 0 55 55" fill="none" xmlns="http://www.w3.org/2000/svg">
    <g clip-path="url(#clip0_91_2593)">
        <path d="M43.5412 54.9996H38.9579C38.3501 54.9996 37.7672 54.7581 37.3375 54.3283C36.9077 53.8986 36.6663 53.3157 36.6663 52.7079C36.6663 52.1001 36.9077 51.5172 37.3375 51.0874C37.7672 50.6577 38.3501 50.4162 38.9579 50.4162H43.5412C45.3646 50.4162 47.1133 49.6919 48.4026 48.4026C49.6919 47.1133 50.4162 45.3646 50.4162 43.5412V38.9579C50.4162 38.3501 50.6577 37.7672 51.0874 37.3375C51.5172 36.9077 52.1001 36.6663 52.7079 36.6663C53.3157 36.6663 53.8986 36.9077 54.3283 37.3375C54.7581 37.7672 54.9996 38.3501 54.9996 38.9579V43.5412C54.9959 46.5791 53.7875 49.4914 51.6395 51.6395C49.4914 53.7875 46.5791 54.9959 43.5412 54.9996Z" fill="#545454"/>
        <path d="M2.29167 18.3333C1.68388 18.3333 1.10098 18.0919 0.671214 17.6621C0.241443 17.2323 0 16.6495 0 16.0417V11.4583C0.00363884 8.42051 1.21202 5.50815 3.36009 3.36009C5.50815 1.21202 8.42051 0.00363884 11.4583 0L16.0417 0C16.6495 0 17.2323 0.241443 17.6621 0.671214C18.0919 1.10098 18.3333 1.68388 18.3333 2.29167C18.3333 2.89945 18.0919 3.48235 17.6621 3.91212C17.2323 4.34189 16.6495 4.58333 16.0417 4.58333H11.4583C9.63497 4.58333 7.88629 5.30766 6.59697 6.59697C5.30766 7.88629 4.58333 9.63497 4.58333 11.4583V16.0417C4.58333 16.6495 4.34189 17.2323 3.91212 17.6621C3.48235 18.0919 2.89945 18.3333 2.29167 18.3333Z" fill="#545454"/>
        <path d="M16.0417 54.9996H11.4583C8.42051 54.9959 5.50815 53.7875 3.36009 51.6395C1.21202 49.4914 0.00363884 46.5791 0 43.5412L0 38.9579C0 38.3501 0.241443 37.7672 0.671214 37.3375C1.10098 36.9077 1.68388 36.6663 2.29167 36.6663C2.89945 36.6663 3.48235 36.9077 3.91212 37.3375C4.34189 37.7672 4.58333 38.3501 4.58333 38.9579V43.5412C4.58333 45.3646 5.30766 47.1133 6.59697 48.4026C7.88629 49.6919 9.63497 50.4162 11.4583 50.4162H16.0417C16.6495 50.4162 17.2323 50.6577 17.6621 51.0874C18.0919 51.5172 18.3333 52.1001 18.3333 52.7079C18.3333 53.3157 18.0919 53.8986 17.6621 54.3283C17.2323 54.7581 16.6495 54.9996 16.0417 54.9996Z" fill="#545454"/>
        <path d="M52.7079 18.3333C52.1001 18.3333 51.5172 18.0919 51.0874 17.6621C50.6577 17.2323 50.4162 16.6495 50.4162 16.0417V11.4583C50.4162 9.63497 49.6919 7.88629 48.4026 6.59697C47.1133 5.30766 45.3646 4.58333 43.5412 4.58333H38.9579C38.3501 4.58333 37.7672 4.34189 37.3375 3.91212C36.9077 3.48235 36.6663 2.89945 36.6663 2.29167C36.6663 1.68388 36.9077 1.10098 37.3375 0.671214C37.7672 0.241443 38.3501 0 38.9579 0L43.5412 0C46.5791 0.00363884 49.4914 1.21202 51.6395 3.36009C53.7875 5.50815 54.9959 8.42051 54.9996 11.4583V16.0417C54.9996 16.6495 54.7581 17.2323 54.3283 17.6621C53.8986 18.0919 53.3157 18.3333 52.7079 18.3333Z" fill="#545454"/>
    </g>
    <g clip-path="url(#clip1_91_2593)">
        <path d="M31.5438 29.1166C31.0639 29.1166 30.5947 28.9743 30.1957 28.7077C29.7967 28.4411 29.4857 28.0621 29.302 27.6187C29.1184 27.1753 29.0703 26.6875 29.1639 26.2168C29.2576 25.7461 29.4887 25.3137 29.828 24.9744C30.1674 24.635 30.5997 24.4039 31.0704 24.3103C31.5411 24.2167 32.029 24.2647 32.4724 24.4484C32.9157 24.632 33.2947 24.943 33.5613 25.3421C33.8279 25.7411 33.9703 26.2102 33.9703 26.6901C33.9703 27.3337 33.7146 27.9509 33.2596 28.4059C32.8045 28.861 32.1873 29.1166 31.5438 29.1166ZM46.7901 37.4378C46.992 38.5996 46.9374 39.7915 46.6301 40.93C46.3229 42.0685 45.7704 43.126 45.0114 44.0285C44.2524 44.931 43.3052 45.6566 42.2363 46.1544C41.1673 46.6523 40.0024 46.9105 38.8232 46.9107H32.3526C31.9236 46.9107 31.5121 46.7403 31.2088 46.4369C30.9054 46.1336 30.735 45.7221 30.735 45.2931V41.6324C29.6789 41.9108 28.5918 42.0538 27.4997 42.0578C26.4069 42.0522 25.3195 41.9054 24.2644 41.621V45.2931C24.2644 45.7221 24.094 46.1336 23.7906 46.4369C23.4872 46.7403 23.0758 46.9107 22.6467 46.9107H16.1762C14.9969 46.9105 13.832 46.6523 12.7631 46.1544C11.6941 45.6566 10.747 44.931 9.98798 44.0285C9.22898 43.126 8.67649 42.0685 8.36923 40.93C8.06198 39.7915 8.00737 38.5996 8.20926 37.4378L8.69455 34.6231C8.85592 33.6869 9.29404 32.8206 9.9524 32.1358C10.6108 31.451 11.4592 30.9791 12.3883 30.781C13.3173 30.5829 14.2844 30.6676 15.1649 31.0243C16.0453 31.381 16.7987 31.9933 17.3279 32.7822C19.3726 35.7878 23.3084 38.8225 27.4997 38.8225C32.5629 38.8225 37.5517 34.3271 39.0335 30.126C39.1524 29.8103 39.3644 29.538 39.6414 29.3454C39.9184 29.1527 40.2474 29.0487 40.5848 29.0471L41.2836 29.0584C41.5968 29.0622 41.9077 29.0038 42.1981 28.8865C42.4886 28.7691 42.7528 28.5952 42.9754 28.3748C43.198 28.1545 43.3746 27.8921 43.4949 27.6028C43.6152 27.3136 43.6768 27.0034 43.6761 26.6901C43.6756 26.1228 43.4762 25.5736 43.1127 25.1379C42.7492 24.7023 42.2445 24.4079 41.6864 24.3057C41.3422 24.2433 41.0276 24.071 40.7896 23.8146C40.5516 23.5583 40.4031 23.2317 40.3664 22.8838C40.0339 19.7056 38.534 16.7638 36.1571 14.628C33.7801 12.4922 30.6952 11.3144 27.4997 11.3225C18.4781 11.3225 16.0015 17.1913 14.0117 21.9084C13.6494 22.7609 13.3081 23.5746 12.9409 24.3074C16.1936 24.1354 19.3653 23.23 22.2187 21.659C25.0722 20.0881 27.5334 17.8921 29.4182 15.2356C29.5416 15.0627 29.6979 14.9157 29.8781 14.8032C30.0583 14.6907 30.2589 14.6148 30.4684 14.5798C30.678 14.5448 30.8924 14.5514 31.0994 14.5992C31.3064 14.6471 31.5019 14.7353 31.6748 14.8587C31.8477 14.9821 31.9946 15.1384 32.1072 15.3186C32.2197 15.4988 32.2956 15.6994 32.3306 15.9089C32.3656 16.1185 32.359 16.3329 32.3112 16.5398C32.2633 16.7468 32.1751 16.9424 32.0517 17.1153C29.9521 20.092 27.2127 22.5611 24.0347 24.3413C24.5191 24.4603 24.9551 24.7256 25.2834 25.1013C25.6116 25.4769 25.816 25.9446 25.8689 26.4406C25.9218 26.9366 25.8205 27.4369 25.5789 27.8733C25.3372 28.3097 24.9669 28.661 24.5184 28.8794C24.07 29.0978 23.5651 29.1726 23.0725 29.0938C22.5799 29.0149 22.1237 28.7861 21.7658 28.4386C21.4079 28.0911 21.1658 27.6418 21.0725 27.1518C20.9792 26.6617 21.0391 26.1549 21.2442 25.7001C17.525 27.2062 13.5035 27.8157 9.50499 27.4796C9.17171 27.4349 8.86063 27.2875 8.61502 27.0578C8.36941 26.8281 8.20148 26.5276 8.13457 26.1981C8.06767 25.8686 8.10512 25.5264 8.24172 25.2191C8.37832 24.9118 8.60728 24.6548 8.89676 24.4837C9.87467 23.3741 10.6024 22.0672 11.0304 20.6515C13.1415 15.6481 16.3379 8.0872 27.4997 8.0872C31.3082 8.07818 34.9971 9.41699 37.9133 11.8666C40.8295 14.3162 42.785 17.7187 43.4335 21.4716C44.4629 21.902 45.3422 22.6269 45.961 23.5554C46.5798 24.4838 46.9104 25.5744 46.9114 26.6901C46.9087 28.0344 46.4177 29.3318 45.5299 30.3412C45.5413 30.3832 45.5704 30.4172 45.5785 30.4625L46.7901 37.4378ZM21.0291 40.3431C18.4704 38.9719 16.2827 37.0002 14.654 34.5972C14.5153 34.3877 14.3273 34.2155 14.1064 34.0959C13.8855 33.9763 13.6385 33.9129 13.3873 33.9113H13.3598C13.0057 33.9188 12.6651 34.049 12.3963 34.2797C12.1275 34.5105 11.9472 34.8274 11.8862 35.1763L11.4009 37.9894C11.2794 38.6863 11.3118 39.4012 11.4957 40.0843C11.6796 40.7673 12.0106 41.4018 12.4655 41.9435C12.9204 42.4852 13.4883 42.9208 14.1292 43.22C14.7702 43.5192 15.4688 43.6746 16.1762 43.6754H21.0291V40.3431ZM43.6033 37.9894L42.5874 32.1449C42.2798 32.2182 41.9665 32.2647 41.6508 32.284C40.0188 35.7278 37.3273 38.5587 33.9703 40.3625V43.6754H38.8232C39.5308 43.6753 40.2298 43.5204 40.8712 43.2216C41.5126 42.9229 42.081 42.4874 42.5364 41.9459C42.9918 41.4043 43.3233 40.7697 43.5076 40.0865C43.6919 39.4034 43.7246 38.6882 43.6033 37.991V37.9894Z" fill="#545454"/>
    </g>
    <defs>
        <clipPath id="clip0_91_2593">
            <rect width="55" height="55" fill="white"/>
        </clipPath>
        <clipPath id="clip1_91_2593">
            <rect width="38.8235" height="38.8235" fill="white" transform="translate(8.08813 8.08813)"/>
        </clipPath>
    </defs>
</svg>