<svg width="74" height="55" viewBox="0 0 74 55" fill="none" xmlns="http://www.w3.org/2000/svg">
    <path d="M29.3125 10.3125C29.3125 8.48914 30.0368 6.74045 31.3261 5.45114C32.6155 4.16183 34.3641 3.4375 36.1875 3.4375H48.5144C49.8814 3.4387 51.1921 3.98274 52.1581 4.95L62.1784 14.9669C63.1444 15.9335 63.6872 17.2441 63.6875 18.6106V44.6875C63.6875 46.5109 62.9632 48.2595 61.6739 49.5489C60.3845 50.8382 58.6359 51.5625 56.8125 51.5625H36.1875C34.3641 51.5625 32.6155 50.8382 31.3261 49.5489C30.0368 48.2595 29.3125 46.5109 29.3125 44.6875V10.3125ZM36.1875 6.875C35.2758 6.875 34.4015 7.23716 33.7568 7.88182C33.1122 8.52648 32.75 9.40082 32.75 10.3125V44.6875C32.75 45.5992 33.1122 46.4735 33.7568 47.1182C34.4015 47.7628 35.2758 48.125 36.1875 48.125H56.8125C57.7242 48.125 58.5985 47.7628 59.2432 47.1182C59.8878 46.4735 60.25 45.5992 60.25 44.6875V20.625H51.6562C50.2887 20.625 48.9772 20.0818 48.0102 19.1148C47.0432 18.1478 46.5 16.8363 46.5 15.4688V6.875H36.1875ZM51.6562 17.1875H59.5384L49.9375 7.58656V15.4688C49.9375 15.9246 50.1186 16.3618 50.4409 16.6841C50.7632 17.0064 51.2004 17.1875 51.6562 17.1875ZM37.9062 27.5C37.4504 27.5 37.0132 27.6811 36.6909 28.0034C36.3686 28.3257 36.1875 28.7629 36.1875 29.2188C36.1875 29.6746 36.3686 30.1118 36.6909 30.4341C37.0132 30.7564 37.4504 30.9375 37.9062 30.9375H55.0938C55.5496 30.9375 55.9868 30.7564 56.3091 30.4341C56.6314 30.1118 56.8125 29.6746 56.8125 29.2188C56.8125 28.7629 56.6314 28.3257 56.3091 28.0034C55.9868 27.6811 55.5496 27.5 55.0938 27.5H37.9062ZM36.1875 36.0938C36.1875 35.6379 36.3686 35.2007 36.6909 34.8784C37.0132 34.5561 37.4504 34.375 37.9062 34.375H55.0938C55.5496 34.375 55.9868 34.5561 56.3091 34.8784C56.6314 35.2007 56.8125 35.6379 56.8125 36.0938C56.8125 36.5496 56.6314 36.9868 56.3091 37.3091C55.9868 37.6314 55.5496 37.8125 55.0938 37.8125H37.9062C37.4504 37.8125 37.0132 37.6314 36.6909 37.3091C36.3686 36.9868 36.1875 36.5496 36.1875 36.0938ZM37.9062 41.25C37.4504 41.25 37.0132 41.4311 36.6909 41.7534C36.3686 42.0757 36.1875 42.5129 36.1875 42.9688C36.1875 43.4246 36.3686 43.8618 36.6909 44.1841C37.0132 44.5064 37.4504 44.6875 37.9062 44.6875H55.0938C55.5496 44.6875 55.9868 44.5064 56.3091 44.1841C56.6314 43.8618 56.8125 43.4246 56.8125 42.9688C56.8125 42.5129 56.6314 42.0757 56.3091 41.7534C55.9868 41.4311 55.5496 41.25 55.0938 41.25H37.9062Z" fill="#545454"/>
    <g clip-path="url(#clip0_93_2671)">
        <path d="M15 14.5C16.3637 14.5 17.6462 14.865 18.75 15.505C18.8994 15.5831 19.0314 15.6907 19.1381 15.8212C19.2449 15.9517 19.3241 16.1024 19.3711 16.2643C19.4181 16.4262 19.4318 16.596 19.4115 16.7633C19.3911 16.9307 19.3372 17.0922 19.2528 17.2382C19.1684 17.3841 19.0554 17.5115 18.9205 17.6126C18.7857 17.7138 18.6317 17.7866 18.468 17.8267C18.3042 17.8668 18.1341 17.8734 17.9677 17.846C17.8014 17.8187 17.6423 17.7579 17.5 17.6675C16.7397 17.2286 15.8773 16.9975 14.9994 16.9976C14.1215 16.9977 13.2591 17.229 12.499 17.6681C11.7388 18.1072 11.1077 18.7387 10.669 19.4992C10.2303 20.2596 9.99958 21.1221 10 22L23.75 22.0013C24.413 22.0013 25.0489 22.2646 25.5178 22.7335C25.9866 23.2023 26.25 23.8382 26.25 24.5013V37.0012C26.25 37.6643 25.9866 38.3002 25.5178 38.769C25.0489 39.2379 24.413 39.5012 23.75 39.5012H6.25C5.58696 39.5012 4.95107 39.2379 4.48223 38.769C4.01339 38.3002 3.75 37.6643 3.75 37.0012V24.5C3.75 23.837 4.01339 23.2011 4.48223 22.7322C4.95107 22.2634 5.58696 22 6.25 22H7.5C7.5 20.0109 8.29018 18.1032 9.6967 16.6967C11.1032 15.2902 13.0109 14.5 15 14.5ZM23.75 24.5H6.25V37H23.75V24.5ZM15 27C15.5332 27.0002 16.0525 27.1708 16.4818 27.4871C16.9111 27.8033 17.2281 28.2485 17.3865 28.7577C17.5448 29.2669 17.5362 29.8134 17.3618 30.3173C17.1875 30.8212 16.8566 31.2562 16.4175 31.5588L16.25 31.665V33.25C16.2496 33.5686 16.1277 33.875 15.9089 34.1067C15.6902 34.3384 15.3913 34.4778 15.0733 34.4965C14.7552 34.5151 14.442 34.4117 14.1977 34.2072C13.9534 34.0027 13.7964 33.7126 13.7587 33.3963L13.75 33.25V31.665C13.2734 31.3898 12.901 30.9651 12.6904 30.4566C12.4798 29.9482 12.4429 29.3845 12.5853 28.8529C12.7277 28.3214 13.0416 27.8517 13.4782 27.5166C13.9148 27.1816 14.4497 27 15 27ZM24.8975 18.2762L26.105 18.6013C26.4129 18.6976 26.6716 18.9093 26.827 19.192C26.9824 19.4747 27.0225 19.8066 26.9388 20.1182C26.8552 20.4298 26.6543 20.697 26.3783 20.8639C26.1022 21.0308 25.7723 21.0845 25.4575 21.0138L24.2512 20.6912C23.9324 20.6043 23.6609 20.3946 23.4962 20.1081C23.3315 19.8215 23.2871 19.4814 23.3725 19.1621C23.4579 18.8429 23.6663 18.5704 23.9521 18.4044C24.2379 18.2384 24.5778 18.1923 24.8975 18.2762ZM23.2912 14.6125C23.4498 14.655 23.5985 14.7283 23.7287 14.8283C23.859 14.9282 23.9682 15.0529 24.0503 15.1951C24.1324 15.3373 24.1856 15.4942 24.207 15.657C24.2284 15.8198 24.2175 15.9852 24.175 16.1438L24.0138 16.7462C23.9719 16.9055 23.8991 17.0549 23.7993 17.1859C23.6996 17.3169 23.575 17.4269 23.4326 17.5096C23.2903 17.5923 23.133 17.6461 22.9698 17.6678C22.8065 17.6896 22.6407 17.6788 22.4816 17.6363C22.3226 17.5937 22.1735 17.5201 22.043 17.4198C21.9124 17.3195 21.803 17.1943 21.721 17.0516C21.6389 16.9088 21.5859 16.7513 21.5649 16.588C21.544 16.4247 21.5554 16.2588 21.5987 16.1L21.7612 15.4962C21.8471 15.1763 22.0565 14.9034 22.3433 14.7377C22.6302 14.572 22.9712 14.527 23.2912 14.6125Z" fill="#545454"/>
    </g>
    <defs>
        <clipPath id="clip0_93_2671">
            <rect width="30" height="30" fill="white" transform="translate(0 12)"/>
        </clipPath>
    </defs>
</svg>